<?xml version="1.0" standalone="no"?>
<!DOCTYPE svg PUBLIC "-//W3C//DTD SVG 20010904//EN"
 "http://www.w3.org/TR/2001/REC-SVG-20010904/DTD/svg10.dtd">
<svg version="1.0" xmlns="http://www.w3.org/2000/svg"
 width="500.000000pt" height="500.000000pt" viewBox="0 0 500.000000 500.000000"
 preserveAspectRatio="xMidYMid meet">
<metadata>
Created by potrace 1.14, written by Peter Selinger 2001-2017
</metadata>
<g transform="translate(0.000000,500.000000) scale(0.100000,-0.100000)"
fill="#000000" stroke="none">
<path d="M1155 4821 c-175 -80 -182 -331 -12 -416 116 -57 256 -14 313 97 14
28 15 28 122 28 l107 0 -155 -155 -155 -155 -262 0 c-173 0 -270 -4 -287 -11
-36 -17 -54 -65 -35 -98 28 -50 42 -51 356 -49 l293 3 233 233 232 232 168 0
167 0 170 -136 171 -137 -3 -136 -3 -136 -75 0 -75 0 -5 96 c-3 59 -10 102
-19 112 -21 26 -75 31 -183 18 -277 -34 -504 -144 -699 -340 -123 -124 -196
-233 -262 -393 l-16 -38 -125 0 -124 0 -32 96 c-18 53 -41 105 -51 115 -17 17
-36 19 -204 19 -184 0 -186 0 -210 -25 -32 -31 -33 -74 -2 -103 21 -20 35 -22
166 -24 l144 -3 36 -105 c28 -82 41 -107 61 -117 16 -8 72 -13 158 -13 l133 0
-7 -87 c-4 -49 -9 -93 -13 -100 -3 -6 -63 -55 -133 -107 l-128 -96 -150 0
-150 0 -20 40 c-27 52 -88 96 -153 110 -144 29 -277 -81 -277 -229 1 -129 103
-231 230 -231 80 0 170 53 206 121 l15 29 162 0 c190 0 181 -3 334 113 56 42
106 77 112 77 31 0 10 -59 -129 -373 -83 -185 -150 -347 -150 -360 0 -44 27
-65 129 -98 l99 -33 7 -69 7 -69 -138 -139 -139 -139 -147 0 -148 0 -20 40
c-27 52 -88 96 -153 110 -144 29 -277 -81 -277 -229 1 -129 103 -231 230 -231
80 0 170 53 206 121 l15 29 159 0 c87 0 171 5 187 11 15 5 81 62 145 127 65
64 119 114 121 112 3 -3 21 -36 40 -75 20 -38 45 -83 56 -100 l21 -30 -318
-318 -317 -317 -3 -140 -4 -140 -26 -14 c-133 -70 -163 -255 -59 -365 86 -91
237 -95 329 -9 106 101 89 284 -35 361 l-47 30 0 106 0 106 288 288 c158 158
291 287 295 287 5 0 29 -18 55 -39 98 -82 275 -160 400 -177 50 -6 52 -8 52
-38 0 -45 -27 -132 -54 -175 -28 -43 -102 -113 -143 -135 -17 -8 -77 -34 -134
-56 -139 -55 -211 -95 -269 -147 -101 -91 -170 -235 -173 -365 -2 -62 0 -72
22 -89 29 -24 72 -24 100 -1 15 12 25 39 35 98 22 126 76 216 164 272 26 17
94 49 152 72 157 62 239 109 301 171 89 89 141 200 158 334 l6 50 95 11 c305
37 576 160 810 368 47 41 105 100 130 130 l45 56 6 -353 c5 -327 7 -357 27
-418 42 -127 124 -223 254 -298 72 -41 122 -94 154 -166 24 -51 29 -78 34
-184 5 -113 8 -125 29 -142 30 -24 72 -24 102 0 22 17 24 29 27 113 4 109 -16
218 -54 296 -36 74 -124 165 -208 215 -91 54 -141 105 -175 176 l-26 56 -3
481 -3 480 28 66 c15 36 32 66 36 67 5 2 44 -27 87 -64 l79 -66 3 -234 c3
-219 4 -236 23 -253 11 -11 98 -50 193 -87 l172 -69 0 -102 0 -102 -30 -12
c-17 -7 -46 -30 -64 -51 -128 -150 -22 -383 174 -382 136 0 233 98 233 233 0
81 -53 168 -125 206 l-28 15 0 133 c0 116 -2 136 -19 158 -13 16 -76 46 -195
93 l-176 70 0 212 c0 132 -4 221 -11 236 -6 13 -69 73 -140 132 -89 75 -128
113 -124 124 14 47 34 198 36 272 4 130 -4 137 -146 141 l-80 3 -3 78 -3 77
140 0 139 0 191 -229 c113 -135 200 -231 213 -235 13 -3 114 -6 225 -6 l202 0
15 -28 c69 -134 262 -164 370 -56 88 88 88 240 0 328 -108 108 -301 78 -370
-56 l-15 -28 -184 0 -185 0 -180 218 c-101 121 -195 225 -213 234 -27 15 -59
18 -189 18 l-158 0 0 115 0 115 217 0 216 0 118 -115 117 -115 140 0 140 0 25
-43 c74 -126 238 -153 347 -59 113 96 113 258 0 354 -109 94 -273 67 -347 -59
l-25 -43 -106 0 -105 0 -119 118 -119 117 -250 3 -249 3 0 114 0 115 160 0
c97 0 169 4 184 11 14 7 50 50 81 97 l57 85 134 -134 134 -134 344 0 c324 0
345 1 365 19 32 29 29 88 -5 115 -26 20 -38 21 -333 21 l-306 0 -122 123 -123
122 48 72 47 73 65 0 c65 0 66 0 85 -36 39 -72 114 -115 201 -115 172 0 283
171 210 327 -56 121 -193 168 -313 109 -48 -24 -91 -68 -106 -107 -5 -15 -20
-18 -93 -18 -57 0 -97 -5 -117 -15 -24 -12 -68 -70 -177 -235 l-145 -220 -137
0 -138 0 0 53 c0 43 -5 58 -23 75 -20 19 -35 22 -115 22 l-92 0 0 102 0 101
115 118 115 117 0 185 c0 171 -1 186 -21 211 -26 33 -79 36 -109 6 -18 -18
-20 -33 -20 -173 l0 -152 -106 -105 c-58 -58 -112 -117 -120 -132 -10 -19 -14
-63 -14 -153 l0 -126 -77 3 -78 3 -5 177 c-4 140 -8 180 -20 191 -8 8 -105 86
-214 173 l-200 159 -413 3 -413 3 -14 27 c-21 39 -75 89 -118 106 -50 21 -134
20 -183 -3z m149 -161 c26 -25 25 -76 -2 -102 -45 -45 -125 -13 -125 51 0 70
75 100 127 51z m3056 -400 c47 -88 -66 -160 -127 -81 -26 34 -4 94 41 110 27
10 73 -6 86 -29z m-2090 -723 l0 -523 38 -36 c20 -19 135 -117 255 -217 l219
-181 287 0 288 0 -4 -52 c-7 -85 -48 -256 -82 -343 -36 -93 -98 -205 -167
-302 l-49 -68 -5 123 c-5 120 -6 124 -33 148 -31 27 -45 29 -80 13 -42 -19
-47 -47 -47 -257 l-1 -197 -61 -45 c-34 -25 -86 -59 -115 -77 l-52 -32 -3 284
c-4 334 7 307 -138 357 l-95 33 -5 148 c-5 141 -6 150 -29 168 -30 25 -62 24
-95 -2 l-26 -20 0 -193 c0 -227 -8 -211 132 -261 l93 -32 3 -277 2 -276 -27
-11 c-16 -6 -67 -21 -115 -34 l-88 -24 0 233 c0 215 -2 235 -19 258 -13 16
-76 46 -194 93 l-174 69 -6 246 c-4 135 -7 300 -7 367 l0 123 39 24 c110 70
149 191 97 302 -56 121 -193 168 -314 108 -161 -80 -171 -309 -17 -402 l44
-27 1 -411 c0 -317 3 -414 13 -428 7 -9 93 -50 192 -90 l180 -73 3 -208 2
-208 -102 6 c-194 11 -335 73 -468 207 -138 137 -197 275 -207 480 -3 71 -11
123 -19 137 -9 14 -42 31 -99 49 -47 16 -85 31 -85 35 0 3 63 148 140 322 77
173 140 321 140 329 0 8 -18 52 -41 99 l-41 84 11 90 c56 444 389 801 820 879
42 8 84 15 94 15 16 1 17 -30 17 -522z m460 -252 l0 -155 -155 0 -155 0 0 148
c0 82 3 152 7 155 3 4 73 7 155 7 l148 0 0 -155z m1775 -110 c14 -13 25 -36
25 -50 0 -14 -11 -37 -25 -50 -69 -70 -170 30 -103 102 29 31 72 30 103 -2z
m-2655 -155 c56 -56 -13 -156 -82 -119 -51 27 -61 70 -27 113 26 33 79 36 109
6z m-1426 -141 c68 -31 45 -139 -29 -139 -74 0 -105 80 -51 127 31 26 44 28
80 12z m4240 -329 c26 -25 25 -76 -2 -102 -45 -45 -125 -13 -125 51 0 70 75
100 127 51z m-4240 -921 c68 -31 45 -139 -29 -139 -74 0 -105 80 -51 127 31
26 44 28 80 12z m3699 -651 c48 -64 -37 -149 -101 -101 -36 27 -42 83 -12 113
30 30 86 24 113 -12z m-3285 -545 c59 -65 -44 -156 -109 -97 -25 22 -26 85 -1
106 38 34 74 31 110 -9z"/>
<path d="M2829 1236 c-91 -24 -154 -98 -165 -192 -11 -94 30 -175 118 -230
l38 -24 0 -98 c0 -121 -5 -115 178 -206 l132 -66 0 -109 c0 -106 1 -110 26
-130 33 -26 65 -27 95 -2 23 18 24 26 27 161 3 117 1 145 -13 166 -9 15 -70
52 -155 94 l-140 70 0 65 c0 60 2 65 28 79 109 56 152 191 97 303 -31 62 -81
102 -149 120 -59 15 -58 15 -117 -1z m119 -172 c28 -31 28 -64 1 -98 -29 -37
-89 -37 -118 0 -25 32 -27 62 -5 92 33 47 82 49 122 6z"/>
<path d="M2292 910 c-13 -16 -18 -45 -22 -123 l-5 -102 -90 -23 c-197 -50
-195 -50 -212 -89 -11 -29 -14 -71 -11 -199 3 -156 4 -163 27 -188 41 -44 100
-31 120 25 6 18 11 87 11 154 l0 123 132 33 c182 45 178 40 178 217 0 126 -2
142 -21 166 -26 33 -81 36 -107 6z"/>
<path d="M2600 513 c-20 -26 -21 -37 -18 -171 3 -137 4 -145 27 -163 32 -26
67 -24 96 6 24 23 25 28 25 170 0 132 -2 147 -20 165 -30 30 -83 27 -110 -7z"/>
</g>
</svg>
